<svg id="Capa_1" enable-background="new 0 0 512 512" height="512" viewBox="0 0 512 512" width="512" xmlns="http://www.w3.org/2000/svg" xmlns:xlink="http://www.w3.org/1999/xlink"><radialGradient id="SVGID_1_" cx="52.326" cy="341.215" gradientUnits="userSpaceOnUse" r="160.193"><stop offset="0" stop-color="#bed8fb"/><stop offset=".4718" stop-color="#93bffb"/><stop offset=".6651" stop-color="#80b4fb"/><stop offset=".8679" stop-color="#6faafa"/><stop offset="1" stop-color="#61a2f9"/></radialGradient><radialGradient id="SVGID_2_" cx="126.235" cy="75.048" gradientUnits="userSpaceOnUse" r="203.632"><stop offset="0" stop-color="#f4fbff"/><stop offset=".5145" stop-color="#cbe2ff"/><stop offset="1" stop-color="#bed8fb"/></radialGradient><radialGradient id="SVGID_3_" cx="426.548" cy="341.006" gradientUnits="userSpaceOnUse" r="436.543"><stop offset="0" stop-color="#80b4fb"/><stop offset=".1461" stop-color="#7aaffb"/><stop offset=".3416" stop-color="#69a1fa"/><stop offset=".5158" stop-color="#5490f9"/><stop offset="1" stop-color="#407093"/></radialGradient><radialGradient id="SVGID_4_" cx="389.269" cy="290.885" gradientUnits="userSpaceOnUse" r="349.502"><stop offset="0" stop-color="#dfdde2"/><stop offset=".1867" stop-color="#d9d6dc"/><stop offset=".4527" stop-color="#c7c4cb"/><stop offset=".7185" stop-color="#afaab4"/><stop offset="1" stop-color="#a298a5"/></radialGradient><radialGradient id="SVGID_5_" cx="365.66" cy="404.399" gradientTransform="matrix(.931 0 0 .112 -75.044 377.127)" gradientUnits="userSpaceOnUse" r="237.604"><stop offset="0" stop-color="#cbe2ff"/><stop offset=".1435" stop-color="#d6e8ff"/><stop offset=".4962" stop-color="#ecf4ff"/><stop offset=".888" stop-color="#fff"/></radialGradient><g><path d="m182.603 211.513-182.603 30.365c0 4.143 1.072 8.286 3.215 11.998l90.172 156.184c4.287 7.425 12.209 11.998 20.782 11.998h68.434c-4.287 0 0-120.455 0-210.545z" fill="url(#SVGID_1_)"/><path d="m182.603 61.698h-68.434c-8.573 0-16.495 4.574-20.782 11.998l-90.172 156.184c-2.143 3.712-3.215 7.855-3.215 11.998h176.173c0-90.09 2.143-180.18 6.43-180.18z" fill="url(#SVGID_2_)"/><path d="m488.003 422.058h-305.4c-8.573 0-16.495-4.574-20.782-11.998l-90.172-156.183c-4.287-7.425-4.287-16.572 0-23.997l90.172-156.183c4.287-7.425 12.209-11.998 20.782-11.998h305.4c13.253 0 23.997 10.744 23.997 23.997v312.366c0 13.253-10.744 23.996-23.997 23.996z" fill="url(#SVGID_3_)"/><path d="m463.331 205.793h-92.049v-92.049h-72.171v92.049h-92.049v72.171h92.049v92.049h72.171v-92.049h92.049z" fill="url(#SVGID_4_)"/><path d="m268.43 450.302c127.317 0 230.528-12.645 230.528-28.243h-461.057c0 15.598 103.211 28.243 230.529 28.243z" fill="url(#SVGID_5_)"/></g></svg>